<svg xmlns="http://www.w3.org/2000/svg" xmlns:xlink="http://www.w3.org/1999/xlink" contentStyleType="text/css" data-diagram-type="ACTIVITY" height="757px" preserveAspectRatio="none" style="width:558px;height:757px;background:#FFFFFF;" version="1.1" viewBox="0 0 558 757" width="558px" zoomAndPan="magnify"><defs/><g><ellipse cx="344.0634" cy="20" fill="#222222" rx="10" ry="10" style="stroke:#222222;stroke-width:1;"/><rect fill="#F1F1F1" height="33.9688" rx="12.5" ry="12.5" style="stroke:#181818;stroke-width:0.5;" width="134.7676" x="276.6796" y="50"/><text fill="#000000" font-family="sans-serif" font-size="12" lengthAdjust="spacing" textLength="114.7676" x="286.6796" y="71.1387">Imagen de entrada</text><rect fill="#F1F1F1" height="33.9688" rx="12.5" ry="12.5" style="stroke:#181818;stroke-width:0.5;" width="158.5273" x="264.7997" y="103.9688"/><text fill="#000000" font-family="sans-serif" font-size="12" lengthAdjust="spacing" textLength="138.5273" x="274.7997" y="125.1074">Convertir a gris + Otsu</text><polygon fill="#F1F1F1" points="272.4238,157.9375,415.7031,157.9375,427.7031,169.9375,415.7031,181.9375,272.4238,181.9375,260.4238,169.9375,272.4238,157.9375" style="stroke:#181818;stroke-width:0.5;"/><text fill="#000000" font-family="sans-serif" font-size="11" lengthAdjust="spacing" textLength="143.2793" x="272.4238" y="173.7456">&#191;Contorno con 4 v&#233;rtices?</text><text fill="#000000" font-family="sans-serif" font-size="11" lengthAdjust="spacing" textLength="10.0386" x="250.3852" y="167.3433">S&#237;</text><text fill="#000000" font-family="sans-serif" font-size="11" lengthAdjust="spacing" textLength="14.9585" x="427.7031" y="167.3433">No</text><rect fill="#F1F1F1" height="33.9688" rx="12.5" ry="12.5" style="stroke:#181818;stroke-width:0.5;" width="100.3262" x="154.2877" y="191.9375"/><text fill="#000000" font-family="sans-serif" font-size="12" lengthAdjust="spacing" textLength="80.3262" x="164.2877" y="213.0762">Warp vertical</text><rect fill="#F1F1F1" height="33.9688" rx="12.5" ry="12.5" style="stroke:#181818;stroke-width:0.5;" width="194.0762" x="107.4127" y="245.9063"/><text fill="#000000" font-family="sans-serif" font-size="12" lengthAdjust="spacing" textLength="174.0762" x="117.4127" y="267.0449">Extraer ROI esquina sup. izq.</text><rect fill="#F1F1F1" height="33.9688" rx="12.5" ry="12.5" style="stroke:#181818;stroke-width:0.5;" width="182.1055" x="113.3981" y="299.875"/><text fill="#000000" font-family="sans-serif" font-size="12" lengthAdjust="spacing" textLength="162.1055" x="123.3981" y="321.0137">Umbral y contornos en ROI</text><rect fill="#F1F1F1" height="33.9688" rx="12.5" ry="12.5" style="stroke:#181818;stroke-width:0.5;" width="138.2246" x="135.3385" y="353.8438"/><text fill="#000000" font-family="sans-serif" font-size="12" lengthAdjust="spacing" textLength="118.2246" x="145.3385" y="374.9824">Separar rank y palo</text><rect fill="#555555" height="6" rx="2.5" ry="2.5" style="stroke:#555555;stroke-width:1;" width="388.9016" x="11" y="407.8125"/><rect fill="#F1F1F1" height="33.9688" rx="12.5" ry="12.5" style="stroke:#181818;stroke-width:0.5;" width="105.752" x="23" y="433.8125"/><text fill="#000000" font-family="sans-serif" font-size="12" lengthAdjust="spacing" textLength="85.752" x="33" y="454.9512">Clasificar rank</text><rect fill="#F1F1F1" height="33.9688" rx="12.5" ry="12.5" style="stroke:#181818;stroke-width:0.5;" width="79.9121" x="35.9199" y="538.1016"/><text fill="#000000" font-family="sans-serif" font-size="12" lengthAdjust="spacing" textLength="59.9121" x="45.9199" y="559.2402">Rank final</text><polygon fill="#F1F1F1" points="37.8889,489.6992,113.863,489.6992,125.863,501.6992,113.863,513.6992,37.8889,513.6992,25.8889,501.6992,37.8889,489.6992" style="stroke:#181818;stroke-width:0.5;"/><text fill="#000000" font-family="sans-serif" font-size="11" lengthAdjust="spacing" textLength="10.0386" x="79.876" y="523.9097">S&#237;</text><text fill="#000000" font-family="sans-serif" font-size="11" lengthAdjust="spacing" textLength="75.9741" x="37.8889" y="505.5073">&#191;Rank v&#225;lido?</text><text fill="#000000" font-family="sans-serif" font-size="11" lengthAdjust="spacing" textLength="14.9585" x="125.863" y="499.105">No</text><ellipse cx="162.8215" cy="501.6992" fill="none" rx="11" ry="11" style="stroke:#222222;stroke-width:1;"/><ellipse cx="162.8215" cy="501.6992" fill="#222222" rx="6" ry="6" style="stroke:#222222;stroke-width:1;"/><rect fill="#F1F1F1" height="33.9688" rx="12.5" ry="12.5" style="stroke:#181818;stroke-width:0.5;" width="104.5566" x="247.5833" y="435.7305"/><text fill="#000000" font-family="sans-serif" font-size="12" lengthAdjust="spacing" textLength="84.5566" x="257.5833" y="456.8691">Clasificar palo</text><rect fill="#F1F1F1" height="33.9688" rx="12.5" ry="12.5" style="stroke:#181818;stroke-width:0.5;" width="172.0801" x="213.8215" y="491.6172"/><text fill="#000000" font-family="sans-serif" font-size="12" lengthAdjust="spacing" textLength="152.0801" x="223.8215" y="512.7559">Color + forma + features</text><rect fill="#F1F1F1" height="33.9688" rx="12.5" ry="12.5" style="stroke:#181818;stroke-width:0.5;" width="74.9316" x="262.3958" y="560.5859"/><text fill="#000000" font-family="sans-serif" font-size="12" lengthAdjust="spacing" textLength="54.9316" x="272.3958" y="581.7246">Palo final</text><rect fill="#555555" height="6" rx="2.5" ry="2.5" style="stroke:#555555;stroke-width:1;" width="388.9016" x="11" y="614.5547"/><rect fill="#F1F1F1" height="33.9688" rx="12.5" ry="12.5" style="stroke:#181818;stroke-width:0.5;" width="234.084" x="87.4088" y="640.5547"/><text fill="#000000" font-family="sans-serif" font-size="12" lengthAdjust="spacing" textLength="214.084" x="97.4088" y="661.6934">Composici&#243;n etiqueta (rank + palo)</text><rect fill="#F1F1F1" height="33.9688" rx="12.5" ry="12.5" style="stroke:#181818;stroke-width:0.5;" width="127.5488" x="419.9016" y="191.9375"/><text fill="#000000" font-family="sans-serif" font-size="12" lengthAdjust="spacing" textLength="107.5488" x="429.9016" y="213.0762">Descartar imagen</text><polygon fill="#F1F1F1" points="344.0634,680.5234,356.0634,692.5234,344.0634,704.5234,332.0634,692.5234,344.0634,680.5234" style="stroke:#181818;stroke-width:0.5;"/><ellipse cx="344.0634" cy="735.5234" fill="none" rx="11" ry="11" style="stroke:#222222;stroke-width:1;"/><ellipse cx="344.0634" cy="735.5234" fill="#222222" rx="6" ry="6" style="stroke:#222222;stroke-width:1;"/><line style="stroke:#181818;stroke-width:1;" x1="344.0634" x2="344.0634" y1="30" y2="50"/><polygon fill="#181818" points="340.0634,40,344.0634,50,348.0634,40,344.0634,44" style="stroke:#181818;stroke-width:1;"/><line style="stroke:#181818;stroke-width:1;" x1="344.0634" x2="344.0634" y1="83.9688" y2="103.9688"/><polygon fill="#181818" points="340.0634,93.9688,344.0634,103.9688,348.0634,93.9688,344.0634,97.9688" style="stroke:#181818;stroke-width:1;"/><line style="stroke:#181818;stroke-width:1;" x1="204.4508" x2="204.4508" y1="225.9063" y2="245.9063"/><polygon fill="#181818" points="200.4508,235.9063,204.4508,245.9063,208.4508,235.9063,204.4508,239.9063" style="stroke:#181818;stroke-width:1;"/><line style="stroke:#181818;stroke-width:1;" x1="204.4508" x2="204.4508" y1="279.875" y2="299.875"/><polygon fill="#181818" points="200.4508,289.875,204.4508,299.875,208.4508,289.875,204.4508,293.875" style="stroke:#181818;stroke-width:1;"/><line style="stroke:#181818;stroke-width:1;" x1="204.4508" x2="204.4508" y1="333.8438" y2="353.8438"/><polygon fill="#181818" points="200.4508,343.8438,204.4508,353.8438,208.4508,343.8438,204.4508,347.8438" style="stroke:#181818;stroke-width:1;"/><line style="stroke:#181818;stroke-width:1;" x1="75.876" x2="75.876" y1="513.6992" y2="538.1016"/><polygon fill="#181818" points="71.876,528.1016,75.876,538.1016,79.876,528.1016,75.876,532.1016" style="stroke:#181818;stroke-width:1;"/><line style="stroke:#181818;stroke-width:1;" x1="125.863" x2="151.8215" y1="501.6992" y2="501.6992"/><polygon fill="#181818" points="141.8215,497.6992,151.8215,501.6992,141.8215,505.6992,145.8215,501.6992" style="stroke:#181818;stroke-width:1;"/><line style="stroke:#181818;stroke-width:1;" x1="75.876" x2="75.876" y1="572.0703" y2="614.5547"/><polygon fill="#181818" points="71.876,604.5547,75.876,614.5547,79.876,604.5547,75.876,608.5547" style="stroke:#181818;stroke-width:1;"/><line style="stroke:#181818;stroke-width:1;" x1="75.876" x2="75.876" y1="467.7813" y2="489.6992"/><polygon fill="#181818" points="71.876,479.6992,75.876,489.6992,79.876,479.6992,75.876,483.6992" style="stroke:#181818;stroke-width:1;"/><line style="stroke:#181818;stroke-width:1;" x1="299.8616" x2="299.8616" y1="469.6992" y2="491.6172"/><polygon fill="#181818" points="295.8616,481.6172,299.8616,491.6172,303.8616,481.6172,299.8616,485.6172" style="stroke:#181818;stroke-width:1;"/><line style="stroke:#181818;stroke-width:1;" x1="299.8616" x2="299.8616" y1="525.5859" y2="560.5859"/><polygon fill="#181818" points="295.8616,550.5859,299.8616,560.5859,303.8616,550.5859,299.8616,554.5859" style="stroke:#181818;stroke-width:1;"/><line style="stroke:#181818;stroke-width:1;" x1="75.876" x2="75.876" y1="413.8125" y2="433.8125"/><polygon fill="#181818" points="71.876,423.8125,75.876,433.8125,79.876,423.8125,75.876,427.8125" style="stroke:#181818;stroke-width:1;"/><line style="stroke:#181818;stroke-width:1;" x1="299.8616" x2="299.8616" y1="413.8125" y2="435.7305"/><polygon fill="#181818" points="295.8616,425.7305,299.8616,435.7305,303.8616,425.7305,299.8616,429.7305" style="stroke:#181818;stroke-width:1;"/><line style="stroke:#181818;stroke-width:1;" x1="299.8616" x2="299.8616" y1="594.5547" y2="614.5547"/><polygon fill="#181818" points="295.8616,604.5547,299.8616,614.5547,303.8616,604.5547,299.8616,608.5547" style="stroke:#181818;stroke-width:1;"/><line style="stroke:#181818;stroke-width:1;" x1="204.4508" x2="204.4508" y1="387.8125" y2="407.8125"/><polygon fill="#181818" points="200.4508,397.8125,204.4508,407.8125,208.4508,397.8125,204.4508,401.8125" style="stroke:#181818;stroke-width:1;"/><line style="stroke:#181818;stroke-width:1;" x1="204.4508" x2="204.4508" y1="620.5547" y2="640.5547"/><polygon fill="#181818" points="200.4508,630.5547,204.4508,640.5547,208.4508,630.5547,204.4508,634.5547" style="stroke:#181818;stroke-width:1;"/><line style="stroke:#181818;stroke-width:1;" x1="260.4238" x2="204.4508" y1="169.9375" y2="169.9375"/><line style="stroke:#181818;stroke-width:1;" x1="204.4508" x2="204.4508" y1="169.9375" y2="191.9375"/><polygon fill="#181818" points="200.4508,181.9375,204.4508,191.9375,208.4508,181.9375,204.4508,185.9375" style="stroke:#181818;stroke-width:1;"/><line style="stroke:#181818;stroke-width:1;" x1="427.7031" x2="483.676" y1="169.9375" y2="169.9375"/><line style="stroke:#181818;stroke-width:1;" x1="483.676" x2="483.676" y1="169.9375" y2="191.9375"/><polygon fill="#181818" points="479.676,181.9375,483.676,191.9375,487.676,181.9375,483.676,185.9375" style="stroke:#181818;stroke-width:1;"/><line style="stroke:#181818;stroke-width:1;" x1="204.4508" x2="204.4508" y1="674.5234" y2="692.5234"/><line style="stroke:#181818;stroke-width:1;" x1="204.4508" x2="332.0634" y1="692.5234" y2="692.5234"/><polygon fill="#181818" points="322.0634,688.5234,332.0634,692.5234,322.0634,696.5234,326.0634,692.5234" style="stroke:#181818;stroke-width:1;"/><line style="stroke:#181818;stroke-width:1;" x1="483.676" x2="483.676" y1="225.9063" y2="692.5234"/><line style="stroke:#181818;stroke-width:1;" x1="483.676" x2="356.0634" y1="692.5234" y2="692.5234"/><polygon fill="#181818" points="366.0634,688.5234,356.0634,692.5234,366.0634,696.5234,362.0634,692.5234" style="stroke:#181818;stroke-width:1;"/><line style="stroke:#181818;stroke-width:1;" x1="344.0634" x2="344.0634" y1="137.9375" y2="157.9375"/><polygon fill="#181818" points="340.0634,147.9375,344.0634,157.9375,348.0634,147.9375,344.0634,151.9375" style="stroke:#181818;stroke-width:1;"/><line style="stroke:#181818;stroke-width:1;" x1="344.0634" x2="344.0634" y1="704.5234" y2="724.5234"/><polygon fill="#181818" points="340.0634,714.5234,344.0634,724.5234,348.0634,714.5234,344.0634,718.5234" style="stroke:#181818;stroke-width:1;"/><!--SRC=[RP8zJiD048NxFSMKZYAbeh8BYa2HXg14Y7gmns6LzQupiuw0sr1IK74097mnnkieFm8tjlpUlFVDQYKYHsFoHOCRyb0Ha8-C5HOcdmU_9uwM0M73Lc0AooXTOOoj8VlvLZq6zW7AuE4Azls7cakIwmd4PmtBrltdn80- -IDo2ociH5UC_svVj8WOLii5aEmwwn6aQsTWttQpW-UXUM9qy3fKf2vHlc7YeA-fHKO6HhzLLuikADuWrO6twIFvvWx5rbe-MekZCcwo6iRt_RkpLVXBVqn9jbevtIc0d11aT-7IAZ6q9uklR7s40joWzV-YZVWd9RZ0UkWwrU3m9emTavnPxdNYd4YhnitD8Q5fWzZIzbyUADfTHn4XIwSrJNMJmbnkaD-GA8jU2x3fJgWXyPjXfry0]--></g></svg>